{"glyphs":{"0":{"ha":929,"x_min":0,"x_max":0,"o":"m 556 960 b 499 967 538 963 518 965 l 499 663 b 556 594 526 651 544 625 b 574 482 571 553 574 504 b 465 294 574 438 565 294 b 357 482 364 294 357 438 b 367 569 357 500 357 535 b 424 658 375 606 392 642 l 424 721 b 367 688 403 714 383 703 b 299 482 324 647 299 575 b 465 236 299 331 363 236 b 631 482 568 236 631 328 b 556 696 631 583 604 657 l 556 900 b 824 482 725 863 824 711 b 465 51 824 213 689 51 b 106 482 200 51 106 274 b 367 899 106 708 201 857 b 424 908 385 903 404 907 l 424 965 b 367 957 404 964 385 961 b 149 821 278 939 203 892 b 49 482 83 736 49 618 b 149 142 49 344 83 226 b 465 -6 222 44 332 -6 b 781 142 599 -6 708 44 b 881 482 846 226 881 344 b 556 960 881 744 758 919 z "},"1":{"ha":633,"x_min":0,"x_max":0,"o":"m 321 940 l 6 728 l 142 506 l 246 575 l 246 -1 l 303 -1 l 303 613 l 507 746 l 507 -1 l 565 -1 l 565 940 z m 507 815 l 303 681 l 160 586 l 83 711 l 339 883 l 507 883 z "},"2":{"ha":807,"x_min":0,"x_max":0,"o":"m 175 239 l 754 239 l 754 297 l 533 297 b 749 651 682 449 749 532 b 413 958 749 835 614 958 b 47 667 214 958 78 850 l 43 640 l 335 571 l 336 606 b 389 665 336 628 344 665 b 436 618 418 665 436 647 b 324 468 436 588 354 500 b 75 222 240 382 140 285 l 67 214 l 67 1 l 754 1 l 754 60 l 124 60 l 124 189 b 175 239 139 204 157 221 z m 364 428 b 493 618 449 517 493 572 b 389 722 493 679 450 722 b 283 642 336 722 297 692 l 110 683 b 411 901 157 879 335 901 b 692 651 582 901 692 803 b 453 297 692 543 618 464 l 235 297 b 364 428 278 340 324 385 z "},"3":{"ha":846,"x_min":0,"x_max":0,"o":"m 681 500 b 771 685 739 546 771 610 b 675 892 771 769 738 842 b 419 967 613 942 525 967 b 76 717 236 967 111 876 l 69 689 l 361 622 l 365 654 b 410 689 368 679 390 689 b 456 650 456 689 456 661 b 408 615 456 640 456 615 l 283 615 l 283 369 l 408 369 b 464 328 446 369 464 356 b 413 279 464 306 456 279 b 347 324 369 279 350 301 l 343 354 l 36 288 l 42 260 b 419 -7 75 96 219 -7 b 793 289 647 -7 793 110 b 681 500 793 382 754 454 z m 419 51 b 106 243 261 51 143 124 l 299 286 b 413 221 315 250 353 221 b 522 328 478 221 522 264 b 408 426 522 388 478 426 l 342 426 l 342 558 l 408 558 b 513 650 472 558 513 593 b 410 746 513 708 472 746 b 317 692 368 746 333 725 l 139 732 b 419 910 176 847 275 910 b 714 685 604 910 714 825 b 610 522 714 614 678 558 l 556 494 l 613 471 b 736 289 696 436 736 376 b 419 51 736 142 615 51 z "},"4":{"ha":874,"x_min":0,"x_max":0,"o":"m 253 376 l 831 376 l 831 433 l 738 433 l 738 951 l 376 951 l 43 397 l 39 390 l 39 151 l 418 151 l 418 10 l 738 10 l 738 151 l 831 151 l 831 208 l 418 208 l 96 208 l 96 374 l 408 894 l 679 894 l 679 433 l 475 433 l 475 747 z m 475 151 l 679 151 l 679 67 l 475 67 z m 418 433 l 354 433 l 418 539 z "},"5":{"ha":826,"x_min":0,"x_max":0,"o":"m 704 542 b 485 629 653 600 576 629 b 390 618 450 629 419 626 l 396 664 l 710 664 l 710 722 l 346 722 l 322 528 l 369 550 b 485 572 401 565 438 572 b 721 329 632 572 721 482 b 417 58 721 168 599 58 b 111 251 264 58 147 133 l 301 292 b 408 226 317 256 354 226 b 524 350 478 226 524 275 b 399 467 524 419 474 467 b 301 435 356 467 321 449 l 147 467 l 197 901 l 710 901 l 710 960 l 146 960 l 85 422 l 315 374 l 326 382 b 399 410 336 390 364 410 b 465 350 424 410 465 401 b 408 283 465 319 456 283 b 350 328 365 283 351 311 l 347 361 l 43 294 l 49 267 b 417 1 79 106 224 1 b 779 329 633 1 779 133 b 704 542 779 415 753 489 z "},"6":{"ha":831,"x_min":0,"x_max":0,"o":"m 518 681 l 639 843 l 725 960 l 654 960 l 567 843 l 414 638 b 301 382 306 458 301 382 b 299 353 299 372 299 363 b 413 238 299 285 344 238 b 528 353 481 238 528 285 b 413 467 528 419 481 467 b 385 464 403 467 393 465 b 479 629 411 526 450 589 b 729 353 632 604 729 497 b 413 58 729 182 596 58 b 96 353 229 58 96 182 b 185 588 96 461 151 540 l 333 800 l 406 901 l 446 960 l 375 960 l 326 890 l 143 629 l 138 621 b 39 353 103 571 39 478 b 413 1 39 149 196 1 b 786 353 629 1 786 149 b 518 681 786 515 681 642 z m 413 410 b 469 353 447 410 469 388 b 413 294 469 317 447 294 b 356 353 378 294 356 317 b 358 372 356 360 357 365 b 413 410 365 396 385 410 z "},"7":{"ha":744,"x_min":0,"x_max":0,"o":"m 42 951 l 42 657 l 358 657 l 71 10 l 133 10 l 158 67 l 186 128 l 189 133 l 421 657 l 622 657 l 393 143 l 358 67 l 333 10 l 396 10 l 685 657 l 706 703 l 708 708 l 708 951 z m 650 721 l 647 714 l 99 714 l 99 894 l 650 894 z "},"8":{"ha":871,"x_min":0,"x_max":0,"o":"m 550 322 b 435 438 550 390 503 438 b 321 322 368 438 321 390 b 435 207 321 267 356 207 b 550 322 514 207 550 267 z m 378 322 b 435 381 378 336 382 381 b 492 322 488 381 492 336 b 435 265 492 294 478 265 b 378 322 393 265 378 294 z m 711 522 b 786 696 760 567 786 626 b 517 963 786 843 688 939 b 460 967 499 964 479 967 l 460 703 b 481 667 472 699 481 688 b 479 658 481 664 481 661 b 435 628 475 638 454 628 b 389 664 414 628 392 639 b 389 667 389 665 389 665 b 407 701 389 685 396 696 l 407 763 b 349 725 382 757 363 743 b 332 667 338 710 332 689 b 435 569 332 611 376 569 b 539 667 494 569 539 611 b 517 731 539 692 531 714 l 517 904 b 728 696 653 883 728 810 b 646 543 728 631 700 579 l 604 517 l 649 493 b 763 313 724 454 763 393 b 435 51 763 151 638 51 b 107 313 233 51 107 151 b 222 493 107 393 146 454 l 265 517 l 225 543 b 142 696 169 579 142 631 b 349 904 142 810 217 882 b 407 910 367 907 386 908 l 407 967 b 349 961 386 965 368 964 b 85 696 182 938 85 843 b 158 522 85 626 110 567 b 50 313 88 472 50 399 b 435 -6 50 119 201 -6 b 819 313 669 -6 819 119 b 711 522 819 399 782 472 z "},"9":{"ha":831,"x_min":0,"x_max":0,"o":"m 417 960 b 43 608 200 960 43 813 b 311 281 43 446 149 319 l 190 117 l 104 1 l 175 1 l 263 117 l 415 322 b 528 579 535 511 528 579 b 532 608 531 589 532 599 b 417 724 532 676 485 724 b 301 608 349 724 301 676 b 417 494 301 542 349 494 b 444 497 426 494 436 494 b 350 332 418 433 379 372 b 100 608 197 357 100 464 b 417 901 100 779 233 901 b 733 608 600 901 733 779 b 644 372 733 500 678 421 l 496 161 l 424 58 l 383 1 l 454 1 l 503 71 l 686 332 l 692 340 b 790 608 726 390 790 482 b 417 960 790 813 633 960 z m 417 551 b 360 608 382 551 360 574 b 417 665 360 644 382 665 b 474 608 451 665 474 644 b 471 589 474 601 474 594 b 417 551 464 565 444 551 z "},"\u0000":{"ha":0,"x_min":0,"x_max":0,"o":""},"\n":{"ha":0,"x_min":0,"x_max":0,"o":""}," ":{"ha":494,"x_min":0,"x_max":0,"o":""},"!":{"ha":390,"x_min":0,"x_max":0,"o":"m 194 268 b 58 132 119 268 58 207 b 194 -4 58 57 119 -4 b 329 132 268 -4 329 57 b 194 268 329 207 268 268 z m 194 57 b 118 132 153 57 118 90 b 194 208 118 174 153 208 b 269 132 236 208 269 174 b 194 57 269 90 236 57 z m 304 274 l 332 825 l 272 825 l 247 333 l 140 333 l 117 825 l 57 825 l 83 274 z "},"\"":{"ha":501,"x_min":0,"x_max":0,"o":"m 257 853 l 257 524 l 317 524 l 317 793 l 400 793 l 400 524 l 460 524 l 460 853 z m 40 524 l 100 524 l 100 793 l 185 793 l 185 524 l 244 524 l 244 853 l 40 853 z "},"#":{"ha":781,"x_min":0,"x_max":0,"o":"m 707 364 l 739 557 l 649 557 l 675 711 l 467 711 l 442 557 l 406 557 l 431 711 l 224 711 l 199 557 l 104 557 l 75 364 l 167 364 l 164 342 l 71 342 l 42 149 l 132 149 l 106 -7 l 167 -7 l 200 197 l 203 208 l 228 361 l 238 424 l 250 497 l 275 651 l 361 651 l 336 497 l 324 424 l 313 363 l 288 208 l 286 197 l 272 111 l 271 108 l 261 53 l 251 -7 l 313 -7 l 332 113 l 333 117 l 339 149 l 375 149 l 350 -7 l 410 -7 l 443 197 l 446 208 l 493 497 l 518 651 l 604 651 l 578 497 l 531 208 l 529 197 l 528 197 l 504 53 l 494 -7 l 556 -7 l 581 149 l 582 149 l 675 149 l 706 343 l 614 343 l 617 364 z m 639 497 l 668 497 l 657 424 l 626 424 z m 149 256 l 142 208 l 111 208 l 122 282 l 154 282 z m 176 424 l 144 424 l 156 497 l 189 497 z m 393 256 l 385 208 l 349 208 l 356 257 l 356 256 l 360 282 l 397 282 z m 407 342 l 371 342 l 372 354 l 374 364 l 410 364 z m 421 424 l 383 424 l 396 497 l 432 497 z m 636 282 l 624 208 l 592 208 l 603 282 z "},"$":{"ha":767,"x_min":0,"x_max":0,"o":"m 461 522 l 510 535 b 496 593 507 557 496 590 b 496 593 496 593 496 593 b 394 646 479 621 446 646 b 288 563 331 646 288 613 b 403 476 288 504 351 489 b 435 468 414 474 424 471 b 660 265 624 417 660 357 b 431 53 660 154 565 67 l 404 50 l 404 -56 l 376 -56 l 376 50 l 349 53 b 111 203 275 60 150 88 l 246 246 b 383 178 267 208 313 178 b 496 263 467 178 496 224 b 374 351 496 325 436 338 b 342 360 364 354 353 357 b 135 563 193 394 135 451 b 350 771 135 675 219 757 l 376 774 l 376 878 l 404 878 l 404 774 l 431 771 b 631 626 531 760 603 706 b 646 568 631 626 644 592 l 703 582 l 697 610 b 464 826 674 722 586 803 l 464 938 l 317 938 l 317 826 b 75 563 171 800 75 697 b 272 317 75 411 172 349 l 40 244 l 46 218 b 317 -4 69 97 168 17 l 317 -115 l 464 -115 l 464 -3 b 719 265 615 22 719 131 b 461 522 719 399 649 469 z m 450 526 b 417 535 439 529 428 532 b 347 563 390 540 347 551 b 394 586 347 585 386 586 b 449 550 433 586 446 564 l 456 525 b 450 526 454 525 451 525 z m 328 301 b 361 293 339 299 350 296 b 436 263 413 282 436 275 b 383 238 436 244 408 238 b 296 285 331 238 297 261 l 293 310 b 328 301 304 307 317 304 z "},"%":{"ha":999,"x_min":0,"x_max":0,"o":"m 681 814 l 142 0 l 214 0 l 253 60 l 275 93 l 713 754 l 746 754 l 306 88 l 249 0 l 319 0 l 857 814 z m 482 599 b 329 810 482 697 418 781 b 269 821 311 817 290 819 l 269 625 b 288 599 281 621 288 611 l 288 597 b 258 568 288 581 275 568 b 229 597 243 568 229 582 l 229 599 b 247 625 229 611 238 621 l 247 686 b 188 653 224 683 201 671 b 169 599 176 638 169 618 b 258 508 169 549 210 508 b 347 599 308 508 347 547 b 329 653 347 618 340 638 l 329 746 b 422 599 385 719 422 663 b 258 435 422 508 349 435 b 94 599 168 435 94 508 b 188 746 94 663 132 719 b 247 761 206 754 226 760 l 247 821 b 188 810 226 819 207 817 b 35 599 99 781 35 697 b 258 375 35 475 135 375 b 482 599 382 375 482 475 z m 811 426 b 751 439 792 433 772 438 l 751 242 b 769 222 760 239 767 231 b 769 215 769 219 769 217 b 740 185 769 199 757 185 b 710 215 724 185 710 199 b 711 222 710 217 710 219 b 729 242 714 231 719 238 l 729 303 b 669 269 704 300 683 288 b 650 215 657 254 650 235 b 740 125 650 165 690 125 b 829 215 789 125 829 165 b 811 269 829 235 822 254 l 811 363 b 904 215 865 336 904 279 b 740 50 904 124 831 50 b 576 215 650 50 576 124 b 669 363 576 279 614 336 b 729 378 688 371 707 376 l 729 439 b 669 426 708 438 688 433 b 517 215 581 397 517 313 b 740 -10 517 92 617 -10 b 964 215 864 -10 964 92 b 811 426 964 314 899 397 z "},"&":{"ha":1035,"x_min":0,"x_max":0,"o":"m 908 63 b 756 206 908 63 829 136 b 810 375 785 256 803 313 l 814 403 l 589 446 b 671 613 642 486 671 543 b 394 838 671 717 599 838 b 119 601 228 838 119 744 b 165 453 119 553 135 504 b 42 250 86 406 42 333 b 367 -3 42 99 172 -3 b 589 50 446 -3 522 15 l 633 11 l 726 11 l 656 71 l 599 119 l 596 122 l 513 192 l 471 226 b 328 349 429 261 376 303 l 308 368 l 251 431 l 232 460 b 179 601 196 511 179 557 b 394 778 179 710 261 778 b 611 613 531 778 611 717 b 486 458 611 539 567 485 l 432 513 b 479 594 460 532 479 563 b 394 675 479 642 443 675 b 311 592 346 675 311 640 b 353 501 311 564 325 535 l 364 489 l 411 439 l 456 401 b 564 307 492 371 529 338 l 593 281 l 678 197 l 696 179 b 761 119 718 160 739 139 l 813 71 l 876 11 l 964 11 z m 314 281 b 383 221 338 260 360 240 b 313 269 363 222 313 228 b 314 281 313 274 313 278 z m 204 407 l 271 331 b 253 269 260 313 253 292 b 386 161 253 206 307 161 b 444 169 404 161 424 164 l 538 92 b 367 57 486 68 428 57 b 101 250 244 57 101 107 b 204 407 101 333 160 382 z m 386 556 b 371 592 374 575 371 586 b 394 615 371 607 379 615 b 419 594 406 615 419 611 b 386 556 419 579 406 564 z m 579 415 b 571 381 576 403 575 392 b 533 413 558 392 546 401 b 582 440 551 421 568 429 z m 711 249 l 619 335 b 632 376 624 349 629 363 l 747 354 b 711 249 740 317 728 281 z "},"'":{"ha":285,"x_min":0,"x_max":0,"o":"m 40 853 l 40 524 l 100 524 l 100 793 l 183 793 l 183 524 l 243 524 l 243 853 z "},"(":{"ha":474,"x_min":0,"x_max":0,"o":"m 419 49 b 313 446 394 85 313 222 b 419 843 313 667 394 806 l 436 867 l 256 1000 l 238 979 b 51 446 218 956 51 744 b 238 -89 51 221 151 17 l 256 -111 l 301 -76 l 267 -28 b 111 446 221 35 111 213 b 265 918 111 651 201 829 l 356 851 b 253 446 319 790 253 649 b 356 39 253 240 318 100 l 390 -10 l 436 25 z "},")":{"ha":475,"x_min":0,"x_max":0,"o":"m 239 979 l 221 1000 l 39 867 l 56 843 b 163 446 81 806 163 667 b 56 49 163 222 81 85 l 39 25 l 85 -10 l 119 39 b 222 446 156 100 222 240 b 119 851 222 649 156 790 l 210 918 b 364 446 274 831 364 653 b 210 -28 364 213 254 35 l 172 -75 l 221 -111 l 239 -89 b 424 446 324 17 424 219 b 239 979 424 689 307 894 z "},"*":{"ha":567,"x_min":0,"x_max":0,"o":"m 531 600 l 469 789 l 372 746 l 382 853 l 183 853 l 194 746 l 96 789 l 35 600 l 138 578 l 68 499 l 231 382 l 282 471 l 336 382 l 497 499 l 429 578 z m 354 468 l 282 588 l 213 468 l 157 508 l 249 614 l 113 644 l 132 708 l 263 651 l 250 793 l 317 793 l 303 651 l 433 708 l 454 644 l 317 614 l 410 508 z "},"+":{"ha":583,"x_min":0,"x_max":0,"o":"m 407 640 l 175 640 l 175 506 l 40 506 l 40 274 l 175 274 l 175 139 l 235 139 l 235 581 l 347 581 l 347 139 l 407 139 l 407 274 l 542 274 l 542 506 l 407 506 z m 175 333 l 100 333 l 100 446 l 175 446 z m 482 333 l 407 333 l 407 446 l 482 446 z "},",":{"ha":339,"x_min":0,"x_max":0,"o":"m 264 110 l 192 -1 l 126 -101 l 60 -62 l 111 44 l 142 110 l 168 164 l 115 194 l -18 -87 l 146 -181 l 315 79 z "},"-":{"ha":564,"x_min":0,"x_max":0,"o":"m 532 454 l 532 514 l 33 514 l 33 282 l 532 282 l 532 342 l 397 342 l 93 342 l 93 454 z "},".":{"ha":336,"x_min":0,"x_max":0,"o":"m 168 271 b 32 135 93 271 32 210 b 168 0 32 60 93 0 b 303 135 242 0 303 60 b 168 271 303 210 242 271 z m 168 60 b 92 135 125 60 92 93 b 168 211 92 178 125 211 b 243 135 210 211 243 176 b 168 60 243 93 210 60 z "},"/":{"ha":563,"x_min":0,"x_max":0,"o":"m 321 964 l -10 -58 l 54 -58 l 72 1 l 85 42 l 86 43 l 364 904 l 474 904 l 199 53 l 182 1 l 163 -58 l 225 -58 l 557 964 z "},":":{"ha":364,"x_min":0,"x_max":0,"o":"m 182 361 b 317 497 256 361 317 422 b 182 632 317 572 256 632 b 46 497 107 632 46 572 b 182 361 46 422 107 361 z m 182 572 b 257 497 224 572 257 539 b 182 421 257 456 224 421 b 106 497 139 421 106 454 b 182 572 106 539 139 572 z m 182 271 b 46 135 107 271 46 210 b 182 0 46 60 107 0 b 317 135 256 0 317 60 b 182 271 317 210 256 271 z m 182 60 b 106 135 139 60 106 93 b 182 211 106 178 139 211 b 257 135 224 211 257 176 b 182 60 257 93 224 60 z "},";":{"ha":382,"x_min":0,"x_max":0,"o":"m 206 318 b 342 454 281 318 342 379 b 206 589 342 529 281 589 b 71 454 131 589 71 529 b 206 318 71 379 131 318 z m 206 529 b 282 454 247 529 282 496 b 206 378 282 413 247 378 b 131 454 164 378 131 413 b 206 529 131 496 164 529 z m 0 -74 l 163 -167 l 332 93 l 133 208 z m 247 74 l 143 -87 l 78 -49 l 160 124 z "},"<":{"ha":575,"x_min":0,"x_max":0,"o":"m 522 614 l 522 679 l 40 486 l 40 260 l 522 67 l 522 306 l 335 374 l 522 440 l 522 504 l 463 482 l 424 468 l 418 467 l 244 404 l 114 451 l 406 568 l 463 590 z m 463 264 l 463 156 l 100 300 l 100 393 z "},">":{"ha":575,"x_min":0,"x_max":0,"o":"m 51 679 l 51 614 l 111 590 l 168 568 l 460 451 l 329 404 l 157 467 l 150 468 l 111 482 l 51 504 l 51 440 l 239 374 l 51 306 l 51 67 l 533 260 l 533 486 z m 474 300 l 111 156 l 111 264 l 474 393 z "},"?":{"ha":643,"x_min":0,"x_max":0,"o":"m 321 265 b 186 129 246 265 186 204 b 321 -6 186 54 246 -6 b 457 129 396 -6 457 54 b 321 265 457 204 396 265 z m 321 54 b 246 129 279 54 246 88 b 321 206 246 171 279 206 b 397 129 363 206 397 171 b 321 54 397 88 363 54 z m 319 835 b 26 613 175 835 63 750 l 19 583 l 268 521 l 274 551 b 303 579 279 579 296 579 b 325 557 318 579 325 574 b 289 508 325 546 307 528 b 193 300 249 465 193 406 l 193 271 l 254 271 b 256 331 249 293 256 331 b 332 467 264 393 300 432 b 385 557 360 496 385 522 b 303 639 385 606 351 639 b 225 593 268 639 240 622 l 94 626 b 319 775 129 719 213 775 b 547 593 525 775 547 647 b 469 449 547 529 510 490 b 393 331 436 414 403 379 b 392 271 393 331 388 299 l 449 271 l 449 300 b 513 407 449 340 478 371 b 607 593 557 453 607 506 b 319 835 607 710 532 835 z "},"@":{"ha":1028,"x_min":0,"x_max":0,"o":"m 985 415 b 522 832 985 622 826 832 b 46 376 242 832 46 644 b 172 53 46 250 90 135 b 500 -75 254 -31 371 -75 b 788 21 656 -75 753 -8 l 810 40 l 729 136 b 768 132 742 133 754 132 b 985 415 875 132 985 229 z m 658 247 l 635 285 l 608 249 b 500 197 583 214 547 197 b 331 379 375 197 331 296 b 486 560 331 467 379 560 b 569 522 519 560 544 549 l 621 467 l 621 550 l 689 550 l 689 347 b 767 257 689 264 749 257 b 861 415 824 257 861 321 b 522 717 861 565 756 717 b 171 376 306 717 171 586 b 500 40 171 156 336 40 b 685 96 571 40 633 58 l 725 49 b 500 -15 683 21 608 -15 b 106 376 268 -15 106 146 b 522 772 106 614 272 772 b 925 415 799 772 925 588 b 768 192 925 263 843 192 b 658 247 733 192 686 201 z m 668 157 b 500 100 622 118 568 100 b 231 376 367 100 231 194 b 522 657 231 553 339 657 b 703 610 600 657 660 639 l 561 610 l 561 603 b 486 621 538 614 514 621 b 271 379 344 621 271 499 b 500 138 271 238 365 138 b 632 185 553 138 597 154 b 668 157 642 175 654 165 z m 749 347 l 749 567 b 801 415 786 522 801 467 b 767 317 801 353 781 317 b 749 347 758 317 749 317 z m 513 483 b 407 379 453 483 407 439 b 513 274 407 318 451 274 b 617 379 571 274 617 319 b 513 483 617 439 572 483 z m 513 333 b 467 379 485 333 467 351 b 513 424 467 406 485 424 b 557 379 539 424 557 406 b 513 333 557 353 538 333 z "},"A":{"ha":1031,"x_min":0,"x_max":0,"o":"m 971 169 l 958 204 l 949 228 l 336 228 l 283 58 l 111 58 l 419 913 l 642 913 l 826 397 l 671 397 l 531 844 l 369 339 l 910 339 l 889 397 l 682 971 l 378 971 l 28 0 l 326 0 l 379 169 l 682 169 l 735 0 l 1032 0 z m 450 397 l 531 651 l 610 397 z m 778 58 l 743 169 l 908 169 l 949 58 z "},"B":{"ha":864,"x_min":0,"x_max":0,"o":"m 715 514 b 790 690 765 557 790 615 b 428 971 790 869 658 971 l 67 971 l 67 539 l 417 539 b 565 667 526 539 565 606 b 417 796 565 749 511 796 l 290 796 l 290 597 l 125 597 l 125 913 l 428 913 b 732 690 624 913 732 833 b 649 538 732 619 704 569 l 633 529 l 633 489 l 651 481 b 769 307 729 447 769 389 b 463 58 769 144 663 58 l 125 58 l 125 386 l 290 386 l 290 176 l 450 176 b 601 317 543 176 601 231 b 450 444 601 397 544 444 l 67 444 l 67 0 l 463 0 b 739 86 583 0 676 29 b 828 307 797 139 828 215 b 715 514 828 397 789 468 z m 350 738 l 417 738 b 507 667 497 738 507 700 b 417 597 507 621 476 597 l 350 597 z m 350 386 l 450 386 b 543 317 543 386 543 333 b 450 235 543 263 511 235 l 350 235 z "},"C":{"ha":949,"x_min":0,"x_max":0,"o":"m 849 185 l 849 183 b 660 63 799 126 733 85 b 522 43 617 50 571 43 b 88 486 271 43 88 229 b 522 929 88 743 271 929 b 849 789 654 929 768 879 l 710 699 b 522 772 663 746 597 772 b 253 486 346 772 253 629 b 522 199 253 343 346 199 b 610 213 553 199 582 204 b 706 269 646 224 678 243 b 711 275 707 271 708 272 b 749 319 725 288 738 303 l 699 353 l 696 350 l 682 331 b 676 324 681 328 678 326 b 590 268 653 297 624 278 b 522 257 569 261 547 257 b 313 486 378 257 313 376 b 522 714 313 596 378 714 b 682 642 607 714 656 675 l 699 621 l 933 775 l 915 800 b 522 988 824 919 682 988 b 168 844 385 988 258 936 b 29 486 79 753 29 625 b 168 128 29 347 79 219 b 522 -17 258 35 385 -17 b 911 168 679 -17 821 51 b 915 174 913 169 914 171 l 933 197 l 885 229 b 849 185 874 214 861 199 z "},"D":{"ha":958,"x_min":0,"x_max":0,"o":"m 413 971 l 64 971 l 64 210 l 413 210 b 704 486 589 210 704 318 b 413 760 704 653 589 760 l 288 760 l 288 268 l 122 268 l 122 913 l 413 913 b 868 486 697 913 868 753 b 413 58 868 218 697 58 l 64 58 l 64 0 l 413 0 b 926 486 729 0 926 186 b 413 971 926 785 729 971 z m 347 701 l 413 701 b 646 486 558 701 646 621 b 413 268 646 350 558 268 l 347 268 z "},"E":{"ha":749,"x_min":0,"x_max":0,"o":"m 347 361 l 644 361 l 644 619 l 347 619 l 347 701 l 686 701 l 686 971 l 65 971 l 65 561 l 586 561 l 586 419 l 65 419 l 65 0 l 697 0 l 697 268 l 347 268 z m 289 619 l 124 619 l 124 913 l 628 913 l 628 760 l 289 760 z m 639 58 l 124 58 l 124 361 l 289 361 l 289 210 l 639 210 z "},"F":{"ha":725,"x_min":0,"x_max":0,"o":"m 690 701 l 690 971 l 64 971 l 64 528 l 346 528 l 594 528 l 594 376 l 64 376 l 64 0 l 346 0 l 346 318 l 653 318 l 653 586 l 346 586 l 346 701 z m 286 58 l 122 58 l 122 318 l 286 318 z m 286 760 l 286 588 l 122 588 l 122 913 l 632 913 l 632 760 z "},"G":{"ha":1035,"x_min":0,"x_max":0,"o":"m 494 588 l 494 351 l 703 351 b 701 351 701 351 701 351 b 524 258 674 303 622 258 b 313 486 378 258 313 376 b 524 715 313 597 378 715 b 683 642 590 715 646 690 l 700 621 l 933 775 l 915 800 b 524 988 825 919 683 988 b 169 844 386 988 260 936 b 31 486 79 753 31 625 b 524 -17 31 196 238 -17 b 697 17 589 -17 646 -6 l 701 17 l 701 0 l 760 0 l 760 410 l 553 410 l 553 529 l 925 529 l 925 1 l 983 1 l 983 588 z m 701 83 b 524 43 651 57 592 43 b 89 486 272 43 89 229 b 524 929 89 743 272 929 b 849 789 656 929 769 879 l 711 699 b 524 774 663 747 599 774 b 253 486 346 774 253 629 b 524 199 253 343 346 199 b 701 260 596 199 656 221 z "},"H":{"ha":969,"x_min":0,"x_max":0,"o":"m 618 971 l 618 625 l 346 625 l 346 971 l 64 971 l 64 567 l 676 567 l 676 913 l 840 913 l 840 58 l 676 58 l 676 414 l 286 414 l 64 414 l 64 0 l 346 0 l 346 356 l 618 356 l 618 0 l 900 0 l 900 971 z m 286 625 l 122 625 l 122 913 l 286 913 z m 286 58 l 122 58 l 122 354 l 286 354 z "},"I":{"ha":421,"x_min":0,"x_max":0,"o":"m 293 971 l 293 58 l 128 58 l 128 971 l 69 971 l 69 0 l 351 0 l 351 971 z "},"J":{"ha":800,"x_min":0,"x_max":0,"o":"m 682 981 l 682 363 b 375 50 682 156 579 50 b 67 279 208 50 88 142 l 232 308 b 374 207 247 257 289 207 b 518 363 481 207 518 288 l 518 921 l 518 981 l 460 981 l 460 363 b 374 265 460 299 431 265 b 285 346 299 265 286 321 l 282 378 l 4 326 l 6 301 b 375 -8 15 119 168 -8 b 740 363 611 -8 740 124 l 740 981 z "},"K":{"ha":919,"x_min":0,"x_max":0,"o":"m 564 500 l 901 971 l 579 971 l 346 631 l 346 971 l 64 971 l 64 572 l 376 572 l 417 632 l 611 913 l 788 913 l 493 500 l 810 58 l 621 58 l 417 353 l 376 413 l 64 413 l 64 0 l 346 0 l 346 353 l 590 0 l 924 0 z m 286 631 l 122 631 l 122 913 l 286 913 z m 286 58 l 122 58 l 122 353 l 286 353 z "},"L":{"ha":703,"x_min":0,"x_max":0,"o":"m 353 268 l 353 971 l 69 971 l 69 0 l 128 0 l 128 913 l 293 913 l 293 210 l 293 0 l 693 0 l 693 268 z m 633 58 l 353 58 l 353 210 l 633 210 z "},"M":{"ha":1203,"x_min":0,"x_max":0,"o":"m 1075 971 l 1075 58 l 908 58 l 908 971 l 851 971 l 850 969 l 600 557 l 351 969 l 350 971 l 293 971 l 293 676 l 292 676 l 292 58 l 128 58 l 128 971 l 69 971 l 69 0 l 351 0 l 351 468 l 351 467 l 544 150 l 658 150 l 850 467 l 850 0 l 1133 0 l 1133 971 z m 850 581 l 626 208 l 576 208 l 351 579 l 351 857 l 600 443 l 850 857 z "},"N":{"ha":974,"x_min":0,"x_max":0,"o":"m 621 971 l 621 507 l 351 908 l 310 971 l 293 971 l 293 411 l 293 58 l 128 58 l 128 971 l 69 971 l 69 0 l 353 0 l 353 465 l 663 0 l 904 0 l 904 971 z m 694 58 l 351 571 l 351 803 l 679 314 l 679 913 l 846 913 l 846 58 z "},"O":{"ha":1046,"x_min":0,"x_max":0,"o":"m 876 846 b 643 975 814 911 733 954 b 585 986 625 981 604 983 l 585 707 b 643 679 607 701 626 692 b 733 488 704 636 733 561 b 522 260 733 378 667 260 b 313 488 378 260 313 378 b 404 681 313 561 342 638 b 463 708 421 693 440 703 l 463 768 b 404 749 442 764 421 757 b 253 488 304 700 253 594 b 522 201 253 346 346 201 b 792 488 699 201 792 346 b 643 747 792 593 742 700 l 643 915 b 957 488 831 867 957 701 b 522 44 957 231 775 44 b 88 488 271 44 88 231 b 404 917 88 703 215 867 b 463 926 422 921 442 925 l 463 986 b 404 976 442 983 422 981 b 168 846 313 956 232 911 b 29 488 79 754 29 626 b 168 129 29 349 79 221 b 522 -14 258 36 385 -14 b 876 129 661 -14 786 36 b 1015 488 967 221 1015 349 b 876 846 1015 626 967 754 z "},"P":{"ha":849,"x_min":0,"x_max":0,"o":"m 435 971 l 65 971 l 65 469 l 435 469 b 600 615 538 469 600 524 b 435 760 600 703 535 760 l 289 760 l 289 528 l 124 528 l 124 913 l 435 913 b 768 615 640 913 768 799 b 435 329 768 349 513 329 l 289 329 l 65 329 l 65 0 l 347 0 l 347 271 l 435 271 b 708 354 544 271 639 299 b 826 615 786 414 826 506 b 435 971 826 832 672 971 z m 347 701 l 435 701 b 542 615 503 701 542 669 b 435 528 542 557 506 528 l 347 528 z m 289 58 l 124 58 l 124 269 l 289 269 z "},"Q":{"ha":1057,"x_min":0,"x_max":0,"o":"m 939 213 l 938 215 b 1015 499 989 297 1015 394 b 876 856 1015 638 967 764 b 522 1000 786 949 661 1000 b 168 856 385 1000 258 949 b 29 499 79 764 29 638 b 168 140 29 360 79 232 b 522 -4 258 47 385 -4 b 774 61 614 -4 700 18 b 774 61 774 61 774 61 l 813 22 l 861 -28 l 1022 131 z m 522 54 b 88 499 271 54 88 242 b 522 942 88 756 271 942 b 957 499 775 942 957 756 b 894 258 957 411 936 329 l 771 383 b 792 499 785 419 792 458 b 522 785 792 640 699 785 b 253 499 346 785 253 640 b 522 211 253 356 346 211 b 611 225 554 211 583 215 l 731 104 b 522 54 669 71 597 54 z m 939 131 l 861 56 l 854 63 l 782 136 l 671 247 l 624 296 b 563 274 604 285 585 278 l 564 272 b 563 272 563 272 563 272 b 547 271 558 272 553 271 b 546 271 546 271 546 271 b 540 271 544 271 542 271 b 533 269 538 269 536 269 b 525 269 531 269 528 269 l 522 269 b 313 499 378 269 313 389 b 522 726 313 608 378 726 b 733 499 667 726 733 608 b 725 429 733 475 731 451 l 724 431 b 724 431 724 431 724 431 b 700 371 719 408 711 389 l 740 331 l 746 325 l 861 208 l 901 168 z "},"R":{"ha":908,"x_min":0,"x_max":0,"o":"m 694 375 b 825 626 779 433 825 521 b 446 971 825 839 679 971 l 65 971 l 65 493 l 446 493 b 600 626 542 493 600 543 b 446 760 600 708 539 760 l 288 760 l 288 551 l 124 551 l 124 913 l 446 913 b 767 626 646 913 767 806 b 640 411 767 532 724 457 l 615 397 l 800 58 l 631 58 l 476 364 l 365 364 l 65 364 l 65 0 l 347 0 l 347 306 l 440 306 l 594 0 l 899 0 z m 347 701 l 446 701 b 542 626 481 701 542 692 b 446 551 542 576 508 551 l 347 551 z m 288 58 l 124 58 l 124 306 l 288 306 z "},"S":{"ha":849,"x_min":0,"x_max":0,"o":"m 503 601 b 474 608 493 603 483 606 b 346 681 404 626 346 644 b 425 739 346 724 386 739 b 525 672 497 739 519 697 l 533 644 l 794 708 l 788 738 b 435 988 751 889 613 988 b 71 679 217 988 71 864 b 357 369 71 514 160 418 b 400 360 372 365 386 363 b 528 293 489 338 528 325 b 424 233 528 238 449 233 b 293 318 342 233 303 276 l 286 349 l 232 332 b 246 275 232 314 246 275 b 424 175 269 224 326 175 b 588 293 525 175 588 219 b 413 417 588 375 503 394 b 372 426 400 419 386 422 b 129 679 200 468 129 542 b 435 929 129 829 253 929 b 722 751 574 929 683 860 l 572 714 b 425 797 547 767 494 797 b 288 681 344 797 288 750 b 458 551 288 596 386 571 b 488 544 469 549 478 547 b 754 297 714 481 754 414 b 426 43 754 171 642 43 b 94 228 343 43 153 61 b 94 228 94 228 94 228 b 81 285 93 232 81 268 l 24 268 l 31 242 b 426 -17 69 78 214 -17 b 813 297 679 -17 813 142 b 503 601 813 457 732 536 z "},"T":{"ha":729,"x_min":0,"x_max":0,"o":"m 10 971 l 10 701 l 224 701 l 224 -3 l 282 -3 l 282 760 l 68 760 l 68 913 l 660 913 l 660 760 l 446 760 l 446 -3 l 504 -3 l 504 701 l 718 701 l 718 971 z "},"U":{"ha":936,"x_min":0,"x_max":0,"o":"m 597 979 l 597 415 b 468 265 597 314 554 265 b 340 415 381 265 340 313 l 340 979 l 281 979 l 281 415 b 468 207 281 281 347 207 b 656 415 588 207 656 283 l 656 921 l 819 921 l 819 393 b 468 50 819 168 699 50 b 115 393 238 50 115 168 l 115 979 l 57 979 l 57 393 b 468 -8 57 135 203 -8 b 878 393 732 -8 878 135 l 878 979 z "},"V":{"ha":997,"x_min":0,"x_max":0,"o":"m 703 971 l 538 443 l 499 319 l 499 321 l 499 319 l 464 432 l 293 971 l -3 971 l 346 0 l 460 0 l 478 58 l 499 125 l 529 222 l 589 411 l 593 425 l 746 913 l 917 913 l 621 89 l 610 58 l 594 15 l 589 0 l 651 0 l 1000 971 z m 468 222 l 417 58 l 386 58 l 81 913 l 251 913 l 408 414 l 413 397 z "},"W":{"ha":1360,"x_min":0,"x_max":0,"o":"m 1299 971 l 1281 913 l 1278 907 l 1015 58 l 883 58 l 928 231 l 928 232 l 988 456 l 989 463 l 1101 890 l 1108 913 l 1124 971 l 1063 971 l 1046 906 l 933 478 l 926 454 l 782 971 l 578 971 l 432 454 l 424 482 l 296 971 l 0 971 l 279 68 l 300 0 l 361 0 l 343 58 l 335 86 l 79 913 l 250 913 l 368 467 l 431 232 l 476 58 l 492 0 l 549 0 l 550 7 l 679 468 l 808 8 l 811 0 l 1058 0 l 1335 890 l 1360 971 z m 679 683 l 521 118 l 461 343 l 622 913 l 738 913 l 897 343 l 839 121 z "},"X":{"ha":946,"x_min":0,"x_max":0,"o":"m 847 146 l 794 228 l 631 483 l 940 972 l 629 972 l 472 729 l 317 972 l 4 972 l 315 483 l 4 0 l 322 0 l 472 235 l 532 142 l 622 0 l 692 0 l 654 58 l 604 139 l 597 150 l 507 290 l 472 344 l 385 483 l 350 538 l 111 914 l 285 914 l 438 675 l 472 621 l 561 483 l 596 429 l 796 117 l 833 58 l 872 0 l 942 0 z m 438 290 l 290 58 l 111 58 l 350 429 z m 596 538 l 507 675 l 661 914 l 835 914 z "},"Y":{"ha":961,"x_min":0,"x_max":0,"o":"m 904 971 l 869 913 l 871 913 l 563 381 l 563 58 l 397 58 l 397 329 l 729 971 l 663 971 l 481 618 l 297 971 l -11 971 l 339 365 l 339 0 l 622 0 l 622 365 l 971 971 z m 90 913 l 261 913 l 447 554 l 376 417 z "},"Z":{"ha":1003,"x_min":0,"x_max":0,"o":"m 807 701 l 850 765 l 949 907 l 993 971 l 39 971 l 39 701 l 497 701 l 200 271 l 156 207 l 58 64 l 14 0 l 88 0 l 132 64 l 229 207 l 274 271 l 571 701 l 615 765 l 97 765 l 97 907 l 875 907 l 778 765 l 733 701 l 436 271 l 392 207 l 294 64 l 250 0 l 951 0 l 951 271 l 510 271 z m 893 207 l 893 64 l 367 64 l 465 207 z "},"[":{"ha":501,"x_min":0,"x_max":0,"o":"m 450 717 l 450 964 l 69 964 l 69 -58 l 450 -58 l 450 1 l 129 1 l 129 904 l 390 904 l 390 776 l 271 776 l 271 131 l 450 131 l 450 190 l 331 190 l 331 717 z "},"\\":{"ha":564,"x_min":0,"x_max":0,"o":"m 242 1004 l 6 1004 l 336 -18 l 400 -18 l 381 42 l 379 42 l 364 93 l 88 944 l 199 944 l 469 106 l 490 42 l 510 -18 l 572 -18 z "},"]":{"ha":501,"x_min":0,"x_max":0,"o":"m 50 964 l 50 717 l 169 717 l 169 190 l 50 190 l 50 131 l 229 131 l 229 776 l 110 776 l 110 904 l 371 904 l 371 1 l 50 1 l 50 -58 l 431 -58 l 431 964 z "},"^":{"ha":640,"x_min":0,"x_max":0,"o":"m 415 888 l 225 888 l 21 486 l 261 486 l 319 615 l 319 614 l 378 486 l 443 486 l 390 604 l 389 608 l 353 686 l 400 788 l 482 624 l 521 546 l 551 486 l 618 486 z m 222 546 l 118 546 l 261 828 l 350 828 z "},"_":{"ha":564,"x_min":0,"x_max":0,"o":"m 532 168 l 532 228 l 33 228 l 33 -4 l 532 -4 l 532 56 l 397 56 l 93 56 l 93 168 z "},"`":{"ha":413,"x_min":0,"x_max":0,"o":"m 286 917 l 18 917 l 171 696 l 243 696 l 201 756 l 132 857 l 249 857 l 296 756 l 294 756 l 322 696 l 389 696 z "},"a":{"ha":894,"x_min":0,"x_max":0,"o":"m 838 154 l 826 185 l 818 207 l 264 207 l 215 53 l 60 53 l 339 826 l 539 826 l 707 360 l 567 360 l 439 765 l 294 307 l 782 307 l 764 360 l 576 879 l 301 879 l -15 0 l 254 0 l 303 154 l 576 154 l 625 0 l 893 0 z m 367 360 l 439 589 l 511 360 z m 664 53 l 632 154 l 782 154 l 818 53 z "},"b":{"ha":790,"x_min":0,"x_max":0,"o":"m 653 465 b 719 625 697 504 719 557 b 393 879 719 786 600 879 l 65 879 l 65 488 l 382 488 b 517 604 482 488 517 547 b 382 719 517 678 468 719 l 268 719 l 268 540 l 118 540 l 118 826 l 393 826 b 667 625 569 826 667 754 b 592 486 667 561 642 515 l 578 478 l 578 442 l 594 435 b 701 278 665 404 701 351 b 424 53 701 131 606 53 l 118 53 l 118 350 l 268 350 l 268 160 l 413 160 b 549 286 497 160 549 208 b 413 403 549 358 499 403 l 65 403 l 65 0 l 424 0 b 674 78 533 0 618 26 b 754 278 726 125 754 194 b 653 465 754 360 719 424 z m 321 667 l 382 667 b 464 604 454 667 464 633 b 382 540 464 561 436 540 l 321 540 z m 321 350 l 413 350 b 496 286 496 350 496 301 b 413 213 496 238 467 213 l 321 213 z "},"c":{"ha":867,"x_min":0,"x_max":0,"o":"m 772 168 b 601 58 726 115 668 79 b 476 40 563 46 521 40 b 83 442 249 40 83 210 b 476 843 83 674 249 843 b 772 715 596 843 700 799 l 647 633 b 476 701 604 678 544 701 b 233 442 317 701 233 571 b 476 182 233 313 317 182 b 556 194 504 182 531 186 b 642 246 589 204 618 222 b 647 250 644 247 646 249 b 682 292 660 263 672 276 l 636 321 l 635 318 l 621 301 b 615 294 619 299 618 297 b 539 244 596 271 569 253 b 476 235 519 238 499 235 b 286 442 346 235 286 343 b 476 649 286 542 346 649 b 621 583 554 649 597 613 l 636 564 l 849 703 l 832 726 b 476 896 750 833 621 896 b 157 765 353 896 239 850 b 31 442 75 682 31 568 b 157 118 31 317 75 201 b 476 -12 239 33 353 -12 b 829 154 619 -12 747 49 b 832 158 829 156 831 157 l 849 181 l 806 210 b 772 168 796 194 783 182 z "},"d":{"ha":876,"x_min":0,"x_max":0,"o":"m 378 879 l 63 879 l 63 190 l 378 190 b 642 440 538 190 642 288 b 378 688 642 590 538 688 l 265 688 l 265 243 l 115 243 l 115 826 l 378 826 b 790 440 636 826 790 682 b 378 53 790 197 636 53 l 63 53 l 63 0 l 378 0 b 843 440 665 0 843 168 b 378 879 843 711 665 879 z m 318 635 l 378 635 b 589 440 510 635 589 563 b 378 243 589 317 510 243 l 318 243 z "},"e":{"ha":686,"x_min":0,"x_max":0,"o":"m 318 243 l 318 326 l 588 326 l 588 561 l 318 561 l 318 635 l 625 635 l 625 879 l 64 879 l 64 507 l 535 507 l 535 381 l 64 381 l 64 0 l 636 0 l 636 243 z m 265 561 l 117 561 l 117 826 l 572 826 l 572 688 l 265 688 z m 583 53 l 117 53 l 117 326 l 265 326 l 265 190 l 583 190 z "},"f":{"ha":665,"x_min":0,"x_max":0,"o":"m 629 635 l 629 879 l 63 879 l 63 478 l 317 478 l 543 478 l 543 342 l 63 342 l 63 0 l 317 0 l 317 288 l 596 288 l 596 531 l 317 531 l 317 635 z m 264 53 l 115 53 l 115 288 l 264 288 z m 264 688 l 264 531 l 115 531 l 115 826 l 576 826 l 576 688 z "},"g":{"ha":944,"x_min":0,"x_max":0,"o":"m 451 533 l 451 319 l 640 319 b 639 319 640 319 639 319 b 479 235 614 275 567 235 b 286 442 347 235 286 343 b 479 649 286 542 347 649 b 624 582 539 649 589 626 l 638 564 l 849 703 l 832 726 b 479 896 751 833 622 896 b 157 765 353 896 239 850 b 32 442 76 683 32 568 b 479 -12 32 179 219 -12 b 635 17 536 -12 589 -3 l 639 17 l 639 3 l 692 3 l 692 374 l 506 374 l 506 481 l 842 481 l 842 3 l 894 3 l 894 533 z m 639 78 b 479 40 594 53 540 40 b 85 442 250 40 85 210 b 479 843 85 674 250 843 b 772 715 597 843 700 797 l 649 633 b 479 703 604 679 546 703 b 233 442 318 703 233 571 b 479 182 233 313 318 182 b 639 238 543 182 599 201 z "},"h":{"ha":888,"x_min":0,"x_max":0,"o":"m 564 879 l 564 565 l 317 565 l 317 879 l 63 879 l 63 513 l 617 513 l 617 826 l 765 826 l 765 53 l 617 53 l 617 374 l 264 374 l 63 374 l 63 0 l 317 0 l 317 321 l 564 321 l 564 0 l 818 0 l 818 879 z m 264 565 l 115 565 l 115 826 l 264 826 z m 264 53 l 115 53 l 115 321 l 264 321 z "},"i":{"ha":392,"x_min":0,"x_max":0,"o":"m 269 879 l 269 53 l 121 53 l 121 879 l 68 879 l 68 0 l 322 0 l 322 879 z "},"j":{"ha":733,"x_min":0,"x_max":0,"o":"m 622 888 l 622 329 b 344 46 622 142 528 46 b 65 253 193 46 83 129 l 214 281 b 343 189 228 233 267 189 b 474 329 439 189 474 261 l 474 835 l 474 888 l 421 888 l 421 329 b 343 242 421 271 394 242 b 263 314 275 242 264 292 l 260 343 l 8 297 l 10 274 b 344 -7 19 108 157 -7 b 675 329 557 -7 675 113 l 675 888 z "},"k":{"ha":839,"x_min":0,"x_max":0,"o":"m 515 453 l 819 879 l 529 879 l 318 571 l 317 571 l 317 879 l 63 879 l 63 518 l 346 518 l 382 571 l 557 826 l 717 826 l 450 453 l 738 53 l 567 53 l 382 319 l 344 372 l 63 372 l 63 0 l 317 0 l 317 319 l 539 0 l 840 0 z m 264 571 l 115 571 l 115 826 l 264 826 z m 264 53 l 115 53 l 115 319 l 264 319 z "},"l":{"ha":643,"x_min":0,"x_max":0,"o":"m 324 243 l 324 879 l 68 879 l 68 0 l 121 0 l 121 826 l 271 826 l 271 190 l 271 0 l 632 0 l 632 243 z m 579 53 l 324 53 l 324 190 l 579 190 z "},"m":{"ha":1100,"x_min":0,"x_max":0,"o":"m 978 879 l 978 53 l 828 53 l 828 879 l 776 879 l 775 878 l 549 504 l 322 878 l 322 879 l 269 879 l 269 613 l 269 53 l 121 53 l 121 879 l 68 879 l 68 0 l 322 0 l 322 424 l 322 422 l 497 136 l 601 136 l 775 422 l 775 0 l 1031 0 l 1031 879 z m 775 525 l 572 189 l 528 189 l 324 525 l 324 775 l 549 401 l 775 775 z "},"n":{"ha":892,"x_min":0,"x_max":0,"o":"m 567 879 l 567 458 l 324 822 l 286 879 l 271 879 l 271 372 l 271 53 l 121 53 l 121 879 l 68 879 l 68 0 l 324 0 l 324 421 l 606 0 l 824 0 l 824 879 z m 771 53 l 633 53 l 324 517 l 324 726 l 619 283 l 619 826 l 771 826 z "},"o":{"ha":954,"x_min":0,"x_max":0,"o":"m 797 767 b 586 885 740 825 668 865 b 533 894 569 889 551 892 l 533 642 b 586 617 553 636 571 628 b 668 443 642 578 668 508 b 476 236 668 343 608 236 b 286 443 346 236 286 343 b 369 618 286 510 313 579 b 422 643 385 629 403 638 l 422 697 b 369 679 403 693 386 686 b 233 443 279 636 233 539 b 476 183 233 314 317 183 b 721 443 638 183 721 314 b 586 678 721 539 675 635 l 586 831 b 871 443 756 786 871 636 b 476 42 871 211 706 42 b 83 443 249 42 83 211 b 369 831 83 638 199 786 b 422 840 386 835 404 839 l 422 894 b 369 885 404 892 386 889 b 157 767 288 867 214 826 b 31 443 75 683 31 569 b 157 119 31 318 75 203 b 476 -11 239 35 353 -11 b 797 119 601 -11 715 35 b 924 443 879 203 924 318 b 797 767 924 569 879 683 z "},"p":{"ha":776,"x_min":0,"x_max":0,"o":"m 399 879 l 64 879 l 64 425 l 399 425 b 547 557 492 425 547 474 b 399 688 547 636 489 688 l 265 688 l 265 478 l 117 478 l 117 826 l 399 826 b 700 557 585 826 700 722 b 399 297 700 317 469 297 l 265 297 l 64 297 l 64 0 l 318 0 l 318 244 l 399 244 b 646 319 497 244 583 271 b 753 557 715 375 753 457 b 399 879 753 753 614 879 z m 318 635 l 399 635 b 494 557 460 635 494 607 b 399 478 494 504 463 478 l 318 478 z m 265 53 l 117 53 l 117 244 l 265 244 z "},"q":{"ha":967,"x_min":0,"x_max":0,"o":"m 854 196 l 853 199 b 924 454 899 272 924 361 b 797 778 924 581 879 694 b 476 908 715 861 601 908 b 157 778 353 908 239 861 b 31 454 75 694 31 581 b 157 129 31 328 75 213 b 476 0 239 46 353 0 b 704 58 560 0 638 19 b 704 58 704 58 704 58 l 739 22 l 783 -22 l 929 122 z m 476 53 b 83 454 249 53 83 222 b 476 856 83 686 249 856 b 871 454 706 856 871 686 b 814 238 871 375 851 301 l 701 350 b 721 454 714 383 721 418 b 476 714 721 583 638 714 b 233 454 317 714 233 583 b 476 194 233 325 317 194 b 557 207 506 194 532 199 l 665 97 b 476 53 610 68 546 53 z m 854 122 l 785 53 l 778 60 l 711 126 l 611 228 l 568 271 b 514 250 551 261 533 254 b 514 250 514 250 514 250 b 499 249 508 250 504 249 b 499 249 499 249 499 249 b 493 247 496 249 494 247 b 486 247 490 247 489 247 b 479 247 485 247 482 247 l 476 247 b 286 454 346 247 286 354 b 476 660 286 554 346 660 b 668 454 608 660 668 554 b 660 392 668 433 665 413 l 660 393 b 660 393 660 393 660 393 b 638 339 654 374 647 356 l 674 303 l 679 297 l 783 192 l 821 156 z "},"r":{"ha":831,"x_min":0,"x_max":0,"o":"m 633 339 b 751 567 710 392 751 472 b 408 879 751 760 619 879 l 64 879 l 64 446 l 408 446 b 547 567 496 446 547 492 b 408 688 547 640 493 688 l 265 688 l 265 499 l 117 499 l 117 826 l 408 826 b 699 567 590 826 699 729 b 585 372 699 482 660 414 l 563 358 l 729 53 l 575 53 l 436 329 l 336 329 l 64 329 l 64 0 l 318 0 l 318 276 l 403 276 l 543 0 l 818 0 z m 318 635 l 408 635 b 494 567 440 635 494 626 b 408 499 494 522 465 499 l 318 499 z m 117 53 l 117 276 l 265 276 l 265 53 z "},"s":{"ha":776,"x_min":0,"x_max":0,"o":"m 458 546 b 432 553 450 547 442 550 b 317 618 369 569 317 585 b 388 671 317 657 353 671 b 479 610 453 671 474 633 l 486 585 l 724 643 l 717 669 b 397 896 683 807 558 896 b 68 617 200 896 68 783 b 328 336 68 467 147 381 b 365 326 340 333 353 331 b 482 268 446 308 482 297 b 388 213 482 217 410 213 b 268 290 313 213 278 253 l 263 318 l 214 303 b 226 251 214 286 226 251 b 388 160 247 204 299 160 b 535 268 478 160 535 201 b 378 379 535 342 458 360 b 340 388 365 382 353 385 b 121 617 185 425 121 492 b 397 843 121 751 232 843 b 658 682 522 843 622 781 l 521 649 b 388 724 499 696 450 724 b 264 618 315 724 264 681 b 419 501 264 540 353 518 b 444 494 428 499 436 497 b 686 271 650 438 686 376 b 389 40 686 157 585 40 b 89 208 314 40 142 57 b 89 208 89 208 89 208 b 76 260 88 211 78 244 l 25 244 l 31 219 b 389 -12 67 72 197 -12 b 739 271 619 -12 739 131 b 458 546 739 415 665 488 z "},"t":{"ha":664,"x_min":0,"x_max":0,"o":"m 11 879 l 11 635 l 204 635 l 204 -1 l 257 -1 l 257 688 l 64 688 l 64 826 l 600 826 l 600 688 l 406 688 l 406 -1 l 460 -1 l 460 635 l 653 635 l 653 879 z "},"u":{"ha":856,"x_min":0,"x_max":0,"o":"m 544 888 l 544 376 b 428 242 544 286 506 242 b 311 376 349 242 311 285 l 311 888 l 258 888 l 258 376 b 428 189 258 256 318 189 b 597 376 535 189 597 257 l 597 835 l 746 835 l 746 357 b 428 47 746 154 636 47 b 108 357 219 47 108 154 l 108 888 l 56 888 l 56 357 b 428 -7 56 122 188 -7 b 799 357 667 -7 799 122 l 799 888 z "},"v":{"ha":911,"x_min":0,"x_max":0,"o":"m 640 879 l 490 400 l 456 290 l 424 390 l 269 879 l 1 879 l 317 0 l 419 0 l 436 53 l 456 113 l 456 114 l 483 201 l 536 372 l 540 385 l 679 826 l 833 826 l 565 81 l 556 53 l 542 14 l 538 0 l 593 0 l 908 879 z m 428 201 l 381 53 l 354 53 l 76 826 l 231 826 l 374 375 l 378 360 z "},"w":{"ha":1239,"x_min":0,"x_max":0,"o":"m 1179 879 l 1163 826 l 1161 821 l 924 53 l 803 53 l 844 210 l 897 413 l 900 419 l 1001 807 l 1007 826 l 1021 879 l 965 879 l 950 819 l 849 432 l 843 411 l 711 879 l 528 879 l 394 411 l 388 436 l 272 879 l 4 879 l 257 63 l 275 0 l 331 0 l 314 53 l 307 78 l 76 826 l 231 826 l 338 422 l 393 210 l 435 53 l 449 0 l 500 0 l 501 6 l 619 424 l 736 8 l 739 0 l 963 0 l 1213 806 l 1235 879 z m 619 618 l 475 107 l 422 310 l 568 826 l 671 826 l 817 310 l 763 108 z "},"x":{"ha":863,"x_min":0,"x_max":0,"o":"m 769 132 l 722 207 l 574 438 l 854 879 l 572 879 l 431 660 l 289 879 l 7 879 l 289 438 l 7 0 l 296 0 l 431 213 l 485 129 l 567 0 l 629 0 l 596 53 l 550 125 l 543 135 l 463 263 l 431 311 l 351 438 l 319 486 l 104 826 l 261 826 l 400 611 l 431 561 l 511 438 l 542 389 l 724 106 l 758 53 l 792 0 l 854 0 z m 400 263 l 267 53 l 104 53 l 319 388 z m 542 486 l 463 611 l 601 826 l 758 826 z "},"y":{"ha":879,"x_min":0,"x_max":0,"o":"m 822 879 l 792 826 l 514 344 l 514 53 l 364 53 l 364 299 l 664 879 l 604 879 l 439 558 l 274 879 l -6 879 l 311 331 l 311 0 l 567 0 l 567 331 l 883 879 z m 86 826 l 242 826 l 410 501 l 346 376 z "},"z":{"ha":917,"x_min":0,"x_max":0,"o":"m 732 635 l 772 693 l 861 821 l 901 879 l 38 879 l 38 635 l 453 635 l 185 244 l 144 188 l 56 58 l 15 0 l 82 0 l 122 58 l 211 188 l 250 244 l 519 635 l 560 692 l 90 692 l 90 821 l 794 821 l 706 693 l 667 635 l 397 244 l 357 188 l 269 58 l 229 0 l 864 0 l 864 244 l 464 244 z m 811 188 l 811 58 l 335 58 l 424 188 z "},"{":{"ha":517,"x_min":0,"x_max":0,"o":"m 368 263 l 368 363 b 367 378 368 368 368 372 b 356 435 367 400 363 418 l 282 435 b 283 435 282 435 283 435 l 43 435 l 43 378 l 74 378 b 107 333 99 378 107 378 l 107 183 b 339 -32 107 85 147 -32 l 463 -32 l 463 217 l 410 217 b 368 263 378 217 368 224 z m 403 28 l 339 28 b 167 183 219 28 167 76 l 167 333 b 161 378 167 350 165 365 l 308 378 b 308 363 308 374 308 368 l 308 263 b 403 157 308 179 358 158 z m 339 990 b 107 775 147 990 107 874 l 107 625 b 74 582 107 582 99 582 l 43 582 l 43 525 l 356 525 b 367 582 363 542 367 560 b 368 596 368 586 368 592 l 368 697 b 410 742 368 736 378 742 l 463 742 l 463 990 z m 403 801 b 308 697 340 800 308 765 l 308 596 b 308 582 308 592 308 586 l 163 582 b 167 625 165 594 167 608 l 167 775 b 339 931 167 883 219 931 l 403 931 z "},"|":{"ha":389,"x_min":0,"x_max":0,"o":"m 68 989 l 68 -47 l 128 -47 l 128 929 l 260 929 l 260 -47 l 319 -47 l 319 989 z "},"}":{"ha":517,"x_min":0,"x_max":0,"o":"m 233 435 l 161 435 b 149 378 154 418 150 400 b 147 363 147 372 147 368 l 147 263 b 107 217 147 224 138 217 l 53 217 l 53 -32 l 176 -32 b 408 183 368 -32 408 85 l 408 333 b 443 378 408 378 418 378 l 472 378 l 472 435 l 233 435 b 233 435 233 435 233 435 z m 354 378 b 349 333 351 365 349 350 l 349 183 b 176 28 349 76 296 28 l 113 28 l 113 157 b 207 263 157 158 207 179 l 207 363 b 208 378 207 368 208 374 z m 443 582 b 408 625 417 582 408 582 l 408 775 b 176 990 408 874 368 990 l 53 990 l 53 742 l 107 742 b 147 697 138 742 147 736 l 147 596 b 149 582 147 592 147 586 b 160 525 150 560 153 542 l 472 525 l 472 582 z m 208 582 b 207 596 208 586 207 592 l 207 697 b 113 801 207 765 175 800 l 113 931 l 176 931 b 349 775 296 931 349 883 l 349 625 b 354 582 349 608 350 594 z "}," ":{"ha":494,"x_min":0,"x_max":0,"o":""},"­":{"ha":0,"x_min":0,"x_max":0,"o":""}}}
